<?xml version="1.0" encoding="UTF-8" standalone="no"?>
<svg width="180px" height="48px" viewBox="0 0 180 48" version="1.1" xmlns="http://www.w3.org/2000/svg" xmlns:xlink="http://www.w3.org/1999/xlink" xmlns:sketch="http://www.bohemiancoding.com/sketch/ns">
    <desc>Balfron Tower</desc>
    <defs></defs>
    <g id="Page-1" stroke="none" stroke-width="1" fill="none" fill-rule="evenodd" sketch:type="MSPage">
        <g id="v1-5" sketch:type="MSArtboardGroup" transform="translate(-99.000000, -24.000000)" fill="#000106">
            <g id="Group" sketch:type="MSLayerGroup" transform="translate(103.000000, 31.000000)">
                <path d="M63,34 L60,34 L60,14 L63,14 L63,34 L63,34 Z" id="Fill-1" sketch:type="MSShapeGroup"></path>
                <path d="M39,34 L36,34 L36,14 L39,14 L39,34 L39,34 Z" id="Fill-2" sketch:type="MSShapeGroup"></path>
                <path d="M15,34 L12,34 L12,14 L15,14 L15,34 L15,34 Z" id="Fill-3" sketch:type="MSShapeGroup"></path>
                <path d="M75,20 L72,20 L72,0 L75,0 L75,20 L75,20 Z" id="Fill-6" sketch:type="MSShapeGroup"></path>
                <path d="M51,20 L48,20 L48,0 L51,0 L51,20 L51,20 Z" id="Fill-7" sketch:type="MSShapeGroup"></path>
                <path d="M111,34 L108,34 L108,14 L111,14 L111,34 L111,34 Z" id="Fill-5" sketch:type="MSShapeGroup"></path>
                <path d="M87,34 L84,34 L84,14 L87,14 L87,34 L87,34 Z" id="Fill-4" sketch:type="MSShapeGroup"></path>
                <path d="M123,20 L120,20 L120,0 L123,0 L123,20 L123,20 Z" id="Fill-10" sketch:type="MSShapeGroup"></path>
                <path d="M99,20 L96,20 L96,0 L99,0 L99,20 L99,20 Z" id="Fill-9" sketch:type="MSShapeGroup"></path>
                <path d="M159,34 L156,34 L156,14 L159,14 L159,34 L159,34 Z" id="Fill-14" sketch:type="MSShapeGroup"></path>
                <path d="M135,34 L132,34 L132,14 L135,14 L135,34 L135,34 Z" id="Fill-13" sketch:type="MSShapeGroup"></path>
                <path d="M171,20 L168,20 L168,0 L171,0 L171,20 L171,20 Z" id="Fill-12" sketch:type="MSShapeGroup"></path>
                <path d="M147,20 L144,20 L144,0 L147,0 L147,20 L147,20 Z" id="Fill-11" sketch:type="MSShapeGroup"></path>
                <path d="M27,20 L24,20 L24,0 L27,0 L27,20 L27,20 Z" id="Fill-8" sketch:type="MSShapeGroup"></path>
                <path d="M3,20 L1.33226763e-15,20 L3.99680289e-15,0 L3,0 L3,20 L3,20 Z" id="Fill-15" sketch:type="MSShapeGroup"></path>
            </g>
        </g>
    </g>
</svg>
